<?xml version="1.0" encoding="iso-8859-1"?>
<!-- Generator: Adobe Illustrator 19.0.0, SVG Export Plug-In . SVG Version: 6.00 Build 0)  -->
<svg version="1.1" id="Capa_1" xmlns="http://www.w3.org/2000/svg" xmlns:xlink="http://www.w3.org/1999/xlink" x="0px" y="0px"
	 viewBox="0 0 512 512" style="enable-background:new 0 0 512 512;" xml:space="preserve">
<rect x="15" y="75" style="fill:#CAE8F9;" width="300" height="362"/>
<rect x="165" y="75" style="fill:#B7E0F6;" width="150" height="362"/>
<g>
	<path style="fill:#32D736;" d="M175.8,161.499l-10.8,11.1l-48.6,49.2c-2.699,2.999-6.603,4.501-10.499,4.501h-0.3
		c-3.9,0-7.8-1.501-10.503-4.2l-30.597-30.601c-6.002-5.7-6.002-15.3-0.3-21c6.002-5.999,15.597-5.999,21.299,0l20.101,19.801
		l48.6-49.801C157.2,137.5,161.1,136,165,136s7.5,1.5,10.499,4.2C181.501,146.199,181.501,155.499,175.8,161.499z"/>
	<path style="fill:#32D736;" d="M165,304.6c-0.3,2.401-1.501,4.499-3.3,6.299L116.4,356.8c-2.699,2.999-6.603,4.501-10.499,4.501
		h-0.3c-3.9,0-7.8-1.501-10.503-4.2L64.501,326.5c-6.002-5.7-6.002-15.3-0.3-21c6.002-5.999,15.597-5.999,21.299,0l20.101,19.801
		l34.497-35.4c6.002-6,15.3-6,21.302-0.3c1.798,1.8,3.3,4.2,3.6,6.599C166.201,298.9,166.201,301.899,165,304.6z"/>
</g>
<path style="fill:#57555C;" d="M302.102,60H36.899L0,90v332l30,30h274.2l25.8-30V90L302.102,60z M300,422H30V90h270V422z"/>
<g>
	<path style="fill:#10BB67;" d="M165,304.6v-8.401C166.201,298.9,166.201,301.899,165,304.6z"/>
	<path style="fill:#10BB67;" d="M175.8,161.499l-10.8,11.1V136c3.9,0,7.5,1.5,10.499,4.2
		C181.501,146.199,181.501,155.499,175.8,161.499z"/>
</g>
<polygon style="fill:#3C3A41;" points="330,90 330,422 304.2,452 165,452 165,422 300,422 300,90 165,90 165,60 302.102,60 "/>
<path style="fill:#787780;" d="M285,0H45C20.098,0,0,20.099,0,45v45h330V45C330,20.099,309.902,0,285,0z"/>
<path style="fill:#57555C;" d="M330,45v45H165V0h120C309.902,0,330,20.099,330,45z"/>
<path style="fill:#787780;" d="M0,422v45c0,24.899,20.098,45,45,45h240c24.902,0,45-20.101,45-45v-45H0z"/>
<path style="fill:#57555C;" d="M165,422h165v45c0,24.899-20.098,45-45,45H165V422z"/>
<path style="fill:#FEC478;" d="M503,387.1L418.4,472c-11.7,11.7-30.9,11.7-42.6,0l-29.7-29.7c-14.7-14.7-41.1,6.6-61.8,4.8
	L165,438.5l-5.5-0.4c-2.4-0.3-4.5-0.9-6.6-2.1c-12-4.5-20.1-16.5-19.2-29.7c0.9-11.7,8.4-21.6,19.2-25.8c3.3-1.5,6.9-2.1,10.8-2.1
	c0,0,0.46,0,1.3,0h74.9c-6.3-6.3-12.6-12.6-12.6-12.6L165,303.75l-12.1-12.05l-42.3-42.3c-11.7-12-11.7-30.9,0-42.6
	s30.6-11.7,42.3-0.3l63.9,63.9c-11.7-11.7-11.7-30.6,0-42.3s30.6-11.7,42.3,0c-11.7-11.7-11.7-30.9,0-42.6
	c11.7-11.7,30.9-11.7,42.6,0l21,21.3c-11.7-11.7-11.7-30.6,0-42.3s30.9-11.7,42.6,0l21.3,21l74.1,74.4c15.9,15.9,5.4,47.7,21.3,63.6
	l21,21.3C515,356.5,515,375.4,503,387.1z"/>
<path style="fill:#FEB756;" d="M503,387.1L418.4,472c-11.7,11.7-30.9,11.7-42.6,0l-29.7-29.7c-14.7-14.7-41.1,6.6-61.8,4.8
	L165,438.5v-60.1h74.9c-6.3-6.3-12.6-12.6-12.6-12.6L165,303.75V218.6l51.8,51.8c-11.7-11.7-11.7-30.6,0-42.3s30.6-11.7,42.3,0
	c-11.7-11.7-11.7-30.9,0-42.6c11.7-11.7,30.9-11.7,42.6,0l21,21.3c-11.7-11.7-11.7-30.6,0-42.3s30.9-11.7,42.6,0l21.3,21l74.1,74.4
	c15.9,15.9,5.4,47.7,21.3,63.6l21,21.3C515,356.5,515,375.4,503,387.1z"/>
<g>
</g>
<g>
</g>
<g>
</g>
<g>
</g>
<g>
</g>
<g>
</g>
<g>
</g>
<g>
</g>
<g>
</g>
<g>
</g>
<g>
</g>
<g>
</g>
<g>
</g>
<g>
</g>
<g>
</g>
</svg>
